<svg xmlns="http://www.w3.org/2000/svg" version="1.1" xmlns:xlink="http://www.w3.org/1999/xlink" xmlns:svgjs="http://svgjs.dev/svgjs" viewBox="0 0 800 800"><defs><linearGradient x1="50%" y1="0%" x2="50%" y2="100%" id="ffflurry-grad" gradientTransform="rotate(270)"><stop stop-color="hsl(0, 0%, 0%)" stop-opacity="1" offset="0%"></stop><stop stop-color="hsl(293, 26%, 81%)" stop-opacity="1" offset="45%"></stop><stop stop-color="hsl(233, 20%, 90%)" stop-opacity="1" offset="100%"></stop></linearGradient></defs><rect width="100%" height="100%" fill="hsl(0, 0%, 0%)"></rect><g fill="url(#ffflurry-grad)"><rect width="259" height="3" x="18.5" y="400.5" rx="1.5" transform="rotate(123, 148, 402)" opacity="0.92"></rect><rect width="291" height="3" x="392.5" y="34.5" rx="1.5" transform="rotate(123, 538, 36)" opacity="0.34"></rect><rect width="220" height="3" x="583" y="51.5" rx="1.5" transform="rotate(123, 693, 53)" opacity="0.63"></rect><rect width="244" height="3" x="189" y="458.5" rx="1.5" transform="rotate(123, 311, 460)" opacity="0.57"></rect><rect width="353" height="3" x="-118.5" y="440.5" rx="1.5" transform="rotate(123, 58, 442)" opacity="0.63"></rect><rect width="84" height="3" x="307" y="598.5" rx="1.5" transform="rotate(123, 349, 600)" opacity="0.31"></rect><rect width="274" height="3" x="321" y="57.5" rx="1.5" transform="rotate(123, 458, 59)" opacity="0.34"></rect><rect width="372" height="3" x="579" y="560.5" rx="1.5" transform="rotate(123, 765, 562)" opacity="0.40"></rect><rect width="199" height="3" x="495.5" y="769.5" rx="1.5" transform="rotate(123, 595, 771)" opacity="0.69"></rect><rect width="263" height="3" x="552.5" y="569.5" rx="1.5" transform="rotate(123, 684, 571)" opacity="0.57"></rect><rect width="303" height="3" x="-7.5" y="651.5" rx="1.5" transform="rotate(123, 144, 653)" opacity="0.36"></rect><rect width="97" height="3" x="232.5" y="21.5" rx="1.5" transform="rotate(123, 281, 23)" opacity="0.29"></rect><rect width="95" height="3" x="566.5" y="715.5" rx="1.5" transform="rotate(123, 614, 717)" opacity="0.36"></rect><rect width="225" height="3" x="423.5" y="773.5" rx="1.5" transform="rotate(123, 536, 775)" opacity="0.50"></rect><rect width="58" height="3" x="586" y="274.5" rx="1.5" transform="rotate(123, 615, 276)" opacity="0.36"></rect><rect width="313" height="3" x="92.5" y="201.5" rx="1.5" transform="rotate(123, 249, 203)" opacity="0.32"></rect><rect width="379" height="3" x="145.5" y="360.5" rx="1.5" transform="rotate(123, 335, 362)" opacity="0.31"></rect><rect width="65" height="3" x="341.5" y="524.5" rx="1.5" transform="rotate(123, 374, 526)" opacity="0.20"></rect><rect width="321" height="3" x="465.5" y="70.5" rx="1.5" transform="rotate(123, 626, 72)" opacity="0.79"></rect><rect width="235" height="3" x="547.5" y="365.5" rx="1.5" transform="rotate(123, 665, 367)" opacity="0.38"></rect><rect width="165" height="3" x="595.5" y="621.5" rx="1.5" transform="rotate(123, 678, 623)" opacity="0.51"></rect><rect width="311" height="3" x="397.5" y="212.5" rx="1.5" transform="rotate(123, 553, 214)" opacity="0.62"></rect><rect width="211" height="3" x="498.5" y="608.5" rx="1.5" transform="rotate(123, 604, 610)" opacity="0.62"></rect><rect width="286" height="3" x="622" y="419.5" rx="1.5" transform="rotate(123, 765, 421)" opacity="0.44"></rect><rect width="62" height="3" x="384" y="324.5" rx="1.5" transform="rotate(123, 415, 326)" opacity="0.24"></rect><rect width="286" height="3" x="-106" y="60.5" rx="1.5" transform="rotate(123, 37, 62)" opacity="0.96"></rect><rect width="93" height="3" x="187.5" y="419.5" rx="1.5" transform="rotate(123, 234, 421)" opacity="0.60"></rect><rect width="387" height="3" x="381.5" y="465.5" rx="1.5" transform="rotate(123, 575, 467)" opacity="0.61"></rect><rect width="252" height="3" x="372" y="298.5" rx="1.5" transform="rotate(123, 498, 300)" opacity="0.19"></rect><rect width="58" height="3" x="65" y="219.5" rx="1.5" transform="rotate(123, 94, 221)" opacity="0.72"></rect><rect width="219" height="3" x="97.5" y="566.5" rx="1.5" transform="rotate(123, 207, 568)" opacity="0.79"></rect><rect width="53" height="3" x="12.5" y="542.5" rx="1.5" transform="rotate(123, 39, 544)" opacity="0.61"></rect><rect width="140" height="3" x="464" y="703.5" rx="1.5" transform="rotate(123, 534, 705)" opacity="0.95"></rect><rect width="302" height="3" x="331" y="152.5" rx="1.5" transform="rotate(123, 482, 154)" opacity="0.43"></rect><rect width="264" height="3" x="358" y="760.5" rx="1.5" transform="rotate(123, 490, 762)" opacity="0.49"></rect><rect width="229" height="3" x="659.5" y="253.5" rx="1.5" transform="rotate(123, 774, 255)" opacity="0.62"></rect><rect width="286" height="3" x="416" y="379.5" rx="1.5" transform="rotate(123, 559, 381)" opacity="0.47"></rect><rect width="51" height="3" x="242.5" y="746.5" rx="1.5" transform="rotate(123, 268, 748)" opacity="0.91"></rect><rect width="268" height="3" x="-83" y="741.5" rx="1.5" transform="rotate(123, 51, 743)" opacity="0.78"></rect><rect width="78" height="3" x="406" y="737.5" rx="1.5" transform="rotate(123, 445, 739)" opacity="0.07"></rect><rect width="235" height="3" x="-1.5" y="127.5" rx="1.5" transform="rotate(123, 116, 129)" opacity="0.23"></rect><rect width="295" height="3" x="106.5" y="653.5" rx="1.5" transform="rotate(123, 254, 655)" opacity="0.86"></rect><rect width="342" height="3" x="434" y="535.5" rx="1.5" transform="rotate(123, 605, 537)" opacity="0.87"></rect><rect width="289" height="3" x="521.5" y="300.5" rx="1.5" transform="rotate(123, 666, 302)" opacity="0.54"></rect><rect width="327" height="3" x="366.5" y="571.5" rx="1.5" transform="rotate(123, 530, 573)" opacity="0.15"></rect><rect width="182" height="3" x="552" y="186.5" rx="1.5" transform="rotate(123, 643, 188)" opacity="0.88"></rect><rect width="209" height="3" x="326.5" y="251.5" rx="1.5" transform="rotate(123, 431, 253)" opacity="0.54"></rect><rect width="48" height="3" x="339" y="261.5" rx="1.5" transform="rotate(123, 363, 263)" opacity="0.33"></rect><rect width="359" height="3" x="282.5" y="632.5" rx="1.5" transform="rotate(123, 462, 634)" opacity="0.81"></rect><rect width="111" height="3" x="612.5" y="436.5" rx="1.5" transform="rotate(123, 668, 438)" opacity="0.99"></rect><rect width="206" height="3" x="53" y="752.5" rx="1.5" transform="rotate(123, 156, 754)" opacity="0.65"></rect><rect width="46" height="3" x="233" y="517.5" rx="1.5" transform="rotate(123, 256, 519)" opacity="0.27"></rect><rect width="110" height="3" x="117" y="259.5" rx="1.5" transform="rotate(123, 172, 261)" opacity="0.72"></rect><rect width="195" height="3" x="467.5" y="299.5" rx="1.5" transform="rotate(123, 565, 301)" opacity="0.27"></rect><rect width="261" height="3" x="283.5" y="140.5" rx="1.5" transform="rotate(123, 414, 142)" opacity="0.82"></rect><rect width="336" height="3" x="179" y="156.5" rx="1.5" transform="rotate(123, 347, 158)" opacity="0.84"></rect><rect width="228" height="3" x="343" y="382.5" rx="1.5" transform="rotate(123, 457, 384)" opacity="0.54"></rect><rect width="119" height="3" x="703.5" y="29.5" rx="1.5" transform="rotate(123, 763, 31)" opacity="0.82"></rect><rect width="305" height="3" x="338.5" y="461.5" rx="1.5" transform="rotate(123, 491, 463)" opacity="0.64"></rect><rect width="249" height="3" x="71.5" y="142.5" rx="1.5" transform="rotate(123, 196, 144)" opacity="0.55"></rect><rect width="153" height="3" x="684.5" y="106.5" rx="1.5" transform="rotate(123, 761, 108)" opacity="0.58"></rect><rect width="251" height="3" x="335.5" y="540.5" rx="1.5" transform="rotate(123, 461, 542)" opacity="0.22"></rect><rect width="288" height="3" x="-101" y="642.5" rx="1.5" transform="rotate(123, 43, 644)" opacity="0.11"></rect><rect width="124" height="3" x="29" y="300.5" rx="1.5" transform="rotate(123, 91, 302)" opacity="0.36"></rect><rect width="178" height="3" x="114" y="44.5" rx="1.5" transform="rotate(123, 203, 46)" opacity="0.69"></rect><rect width="147" height="3" x="307.5" y="676.5" rx="1.5" transform="rotate(123, 381, 678)" opacity="0.15"></rect><rect width="374" height="3" x="55" y="317.5" rx="1.5" transform="rotate(123, 242, 319)" opacity="1.00"></rect><rect width="460" height="3" x="526" y="344.5" rx="1.5" transform="rotate(123, 756, 346)" opacity="0.16"></rect><rect width="345" height="3" x="188.5" y="755.5" rx="1.5" transform="rotate(123, 361, 757)" opacity="0.46"></rect><rect width="135" height="3" x="315.5" y="47.5" rx="1.5" transform="rotate(123, 383, 49)" opacity="0.48"></rect><rect width="336" height="3" x="-135" y="336.5" rx="1.5" transform="rotate(123, 33, 338)" opacity="0.76"></rect><rect width="285" height="3" x="519.5" y="675.5" rx="1.5" transform="rotate(123, 662, 677)" opacity="0.35"></rect><rect width="268" height="3" x="337" y="214.5" rx="1.5" transform="rotate(123, 471, 216)" opacity="0.16"></rect><rect width="228" height="3" x="639" y="480.5" rx="1.5" transform="rotate(123, 753, 482)" opacity="0.09"></rect><rect width="204" height="3" x="653" y="652.5" rx="1.5" transform="rotate(123, 755, 654)" opacity="0.73"></rect><rect width="42" height="3" x="736" y="747.5" rx="1.5" transform="rotate(123, 757, 749)" opacity="0.22"></rect><rect width="113" height="3" x="269.5" y="54.5" rx="1.5" transform="rotate(123, 326, 56)" opacity="0.60"></rect><rect width="249" height="3" x="182.5" y="236.5" rx="1.5" transform="rotate(123, 307, 238)" opacity="0.88"></rect><rect width="268" height="3" x="422" y="125.5" rx="1.5" transform="rotate(123, 556, 127)" opacity="0.11"></rect><rect width="146" height="3" x="640" y="259.5" rx="1.5" transform="rotate(123, 713, 261)" opacity="0.40"></rect><rect width="150" height="3" x="661" y="172.5" rx="1.5" transform="rotate(123, 736, 174)" opacity="0.97"></rect><rect width="121" height="3" x="628.5" y="509.5" rx="1.5" transform="rotate(123, 689, 511)" opacity="0.20"></rect><rect width="257" height="3" x="549.5" y="756.5" rx="1.5" transform="rotate(123, 678, 758)" opacity="0.29"></rect><rect width="162" height="3" x="478" y="651.5" rx="1.5" transform="rotate(123, 559, 653)" opacity="0.35"></rect><rect width="169" height="3" x="-52.5" y="180.5" rx="1.5" transform="rotate(123, 32, 182)" opacity="0.90"></rect><rect width="210" height="3" x="318" y="441.5" rx="1.5" transform="rotate(123, 423, 443)" opacity="0.18"></rect><rect width="136" height="3" x="207" y="104.5" rx="1.5" transform="rotate(123, 275, 106)" opacity="0.66"></rect><rect width="332" height="3" x="-48" y="36.5" rx="1.5" transform="rotate(123, 118, 38)" opacity="0.26"></rect><rect width="424" height="3" x="-87" y="537.5" rx="1.5" transform="rotate(123, 125, 539)" opacity="0.51"></rect><rect width="55" height="3" x="349.5" y="451.5" rx="1.5" transform="rotate(123, 377, 453)" opacity="0.68"></rect></g></svg>